<svg width="29" height="29" viewBox="0 0 29 29" fill="none" xmlns="http://www.w3.org/2000/svg">
<path d="M26.4686 2.6579L16.7632 0.946554C15.1301 0.658632 13.567 1.75301 13.279 3.38632L13.0481 4.69534C12.9332 4.71235 12.8185 4.73532 12.7046 4.76583L3.18531 7.31656C2.40933 7.52447 1.7607 8.02217 1.35904 8.71789C0.957378 9.41366 0.850632 10.2242 1.0586 11.0002L5.25723 26.6699C5.46514 27.4459 5.96283 28.0945 6.65859 28.4962C7.12205 28.7638 7.63631 28.9005 8.15752 28.9005C8.41875 28.9005 8.68178 28.8661 8.94088 28.7967L18.4602 26.2459C19.2362 26.038 19.8848 25.5403 20.2864 24.8446C20.4058 24.6379 20.4984 24.4209 20.5652 24.1979L22.6071 24.5579C22.783 24.5889 22.958 24.6039 23.1308 24.6039C24.5622 24.6039 25.8344 23.5755 26.0914 22.1182L28.9083 6.14223C29.1963 4.50897 28.1018 2.94593 26.4686 2.6579ZM19.0022 22.9869C19.0967 23.3396 19.0482 23.7081 18.8656 24.0244C18.683 24.3406 18.3882 24.5668 18.0355 24.6613L8.5162 27.2121C8.16348 27.3067 7.79506 27.2581 7.47882 27.0755C7.16257 26.8929 6.93634 26.5981 6.84184 26.2453L2.64322 10.5756C2.54872 10.2229 2.59723 9.85443 2.77982 9.53818C2.96241 9.22193 3.25722 8.99575 3.60994 8.9012L13.1292 6.35047C13.247 6.31892 13.3666 6.30328 13.4853 6.30328C13.7222 6.30328 13.956 6.3654 14.1666 6.48702C14.4829 6.66962 14.7091 6.96443 14.8036 7.31716L19.0022 22.9869ZM17.3592 10.5164C17.3652 10.4695 17.3715 10.4227 17.3797 10.3762C17.4682 9.87423 17.9064 9.52002 18.3995 9.52002C18.459 9.52002 18.5193 9.52516 18.5799 9.53588C18.9615 9.6032 19.2714 9.87526 19.3883 10.2459C19.4803 10.5376 19.727 10.7538 20.0281 10.8069C20.3294 10.8601 20.635 10.7412 20.8212 10.4986C21.0579 10.1903 21.442 10.0406 21.8237 10.1079C22.0962 10.156 22.3337 10.3073 22.4925 10.534C22.6512 10.7606 22.7122 11.0355 22.6642 11.3081C22.3379 13.1584 20.2525 14.7329 19.2161 15.4123C18.9562 15.0642 18.6128 14.5684 18.2905 13.992L17.3592 10.5164ZM27.2927 5.85737L24.4757 21.8334C24.3448 22.5758 23.6343 23.073 22.8919 22.9423L20.5794 22.5346L19.176 17.297C19.2592 17.2816 19.3411 17.253 19.4186 17.2107C19.5935 17.1154 23.7074 14.8388 24.2797 11.593C24.536 10.1395 23.562 8.74851 22.1086 8.49225C21.5083 8.38643 20.9057 8.48799 20.3885 8.76311C19.9965 8.32765 19.4651 8.02611 18.8647 7.92024C18.1608 7.79604 17.4504 7.95354 16.8647 8.36363C16.8413 8.38004 16.8187 8.39732 16.7959 8.41432L16.3882 6.89257C16.1803 6.11658 15.6826 5.46795 14.9868 5.06628C14.8856 5.00782 14.7817 4.95636 14.676 4.91048L14.8945 3.67118C15.0254 2.92882 15.736 2.43134 16.4783 2.5622L26.1836 4.27355C26.9261 4.40447 27.4236 5.11495 27.2927 5.85737Z" fill="#6F6E7C"/>
</svg>
