<svg width="29" height="27" viewBox="0 0 29 27" fill="none" xmlns="http://www.w3.org/2000/svg">
<path d="M26.9456 9.252C25.0476 2.93 17.9298 -0.431068 11.146 1.70294C4.36212 3.83695 0.442956 10.6747 2.34981 16.9789C2.66746 18.0267 3.1416 19.0193 3.75579 19.9221C3.86801 20.0891 3.9207 20.2898 3.90518 20.4911C3.84407 21.1669 3.63782 21.821 3.30087 22.4077C2.96391 22.9944 2.50437 23.4995 1.95438 23.8878C0.864749 24.6347 1.02292 25.4349 2.30588 25.2838C3.88356 25.1357 5.38223 24.5168 6.61168 23.5054C6.7158 23.3824 6.86061 23.3019 7.01908 23.279C7.17755 23.2561 7.33885 23.2923 7.47285 23.3809C10.5221 25.426 14.1688 25.7639 18.1934 24.4924C24.9421 22.3939 28.8789 15.5562 26.9456 9.252Z" fill="#F5F5F5" stroke="#F5F5F5" stroke-width="2" stroke-miterlimit="10"/>
</svg>
