<svg width="30" height="27" viewBox="0 0 30 27" fill="none" xmlns="http://www.w3.org/2000/svg">
<path d="M27.6117 9.68877C25.7136 3.36676 18.5958 0.00569973 11.812 2.13971C5.02815 4.27372 1.10899 11.1114 3.01584 17.4157C3.33349 18.4635 3.80763 19.456 4.42182 20.3588C4.53404 20.5258 4.58673 20.7265 4.57121 20.9279C4.5101 21.6036 4.30386 22.2577 3.9669 22.8444C3.62994 23.4311 3.1704 23.9363 2.62041 24.3245C1.53078 25.0714 1.68895 25.8717 2.97191 25.7205C4.5496 25.5725 6.04826 24.9535 7.27772 23.9422C7.38183 23.8191 7.52665 23.7387 7.68512 23.7157C7.84359 23.6928 8.00488 23.7291 8.13888 23.8177C11.1881 25.8628 14.8348 26.2007 18.8595 24.9292C25.6082 22.8307 29.5449 15.993 27.6117 9.68877Z" stroke="#6F6E7C" stroke-width="2" stroke-miterlimit="10"/>
</svg>
