<svg width="25" height="32" viewBox="0 0 25 32" fill="none" xmlns="http://www.w3.org/2000/svg">
<path d="M22.698 14.3665C22.4344 13.8394 20.9273 8.35402 20.4003 8.48578C19.8732 8.61755 18.8974 10.9012 18.5074 11.4684C18.2971 11.7743 17.7576 12.8512 17.4941 13.3783C16.9671 11.7971 16.2415 9.0959 15.3192 7.64649C13.8698 5.4065 12.0251 3.82533 10.5757 2.77122L9.91684 2.24416C9.52155 1.98063 8.99449 1.84887 8.5992 2.1124C8.07214 2.37592 7.80861 2.77122 7.80861 3.29827C7.80861 5.27474 7.28155 8.04178 6.62273 9.22766C5.96391 10.4135 5.83215 10.5453 5.17333 11.2041L4.77804 11.7312C4.51451 11.9947 4.38274 12.2582 4.11921 12.39C3.46039 13.0488 3.0651 13.5759 2.27452 14.7618C1.48393 16.0794 1.08864 17.7923 1.08864 20.0323C1.08864 26.2252 5.96391 30.9688 12.2886 30.9688C18.4815 30.9688 23.4885 25.9617 23.6203 19.9006C23.6203 18.4512 23.4885 16.87 22.698 14.3665ZM22.698 14.3665C22.7804 14.6319 21.9074 11.9947 22.698 14.3665Z" stroke="#6F6E7C" stroke-width="2"/>
</svg>
