<svg width="25" height="32" viewBox="0 0 25 32" fill="none" xmlns="http://www.w3.org/2000/svg">
<path d="M12.6226 30.532C6.29788 30.532 1.42261 25.7885 1.42261 19.5956C1.42261 17.3556 1.8179 15.6426 2.60849 14.325C3.39907 13.1391 3.79436 12.6121 4.45318 11.9532C4.71671 11.8215 4.84848 11.5579 5.112 11.2944L5.5073 10.7674C6.16612 10.1085 6.29788 9.97677 6.9567 8.79089C7.61552 7.60502 8.14258 4.83797 8.14258 2.86151C8.14258 2.33445 8.40611 1.93916 8.93317 1.67563C9.32846 1.4121 9.85552 1.54386 10.2508 1.80739L10.9096 2.33445C12.359 3.38856 14.2037 4.96973 15.6531 7.20972C16.5755 8.65913 17.301 11.3604 17.8281 12.9415C18.0916 12.4145 18.6311 11.3376 18.8414 11.0316C19.2314 10.4645 20.2072 8.18078 20.7342 8.04901C21.2613 7.91725 22.7684 13.4026 23.0319 13.9297C22.2413 11.5579 23.1143 14.1951 23.0319 13.9297C23.8225 16.4332 23.9543 18.0144 23.9543 19.4638C23.8225 25.5249 18.8155 30.532 12.6226 30.532Z" fill="#F5F5F5"/>
<path d="M23.0319 13.9297C22.7684 13.4026 21.2613 7.91725 20.7342 8.04901C20.2072 8.18078 19.2314 10.4645 18.8414 11.0316C18.6311 11.3376 18.0916 12.4145 17.8281 12.9415C17.301 11.3604 16.5755 8.65913 15.6531 7.20972C14.2037 4.96973 12.359 3.38856 10.9096 2.33445L10.2508 1.80739C9.85552 1.54386 9.32846 1.4121 8.93317 1.67563C8.40611 1.93916 8.14258 2.33445 8.14258 2.86151C8.14258 4.83797 7.61552 7.60502 6.9567 8.79089C6.29788 9.97677 6.16612 10.1085 5.5073 10.7674L5.112 11.2944C4.84848 11.5579 4.71671 11.8215 4.45318 11.9532C3.79436 12.6121 3.39907 13.1391 2.60849 14.325C1.8179 15.6426 1.42261 17.3556 1.42261 19.5956C1.42261 25.7885 6.29788 30.532 12.6226 30.532C18.8155 30.532 23.8225 25.5249 23.9543 19.4638C23.9543 18.0144 23.8225 16.4332 23.0319 13.9297ZM23.0319 13.9297C23.1143 14.1951 22.2413 11.5579 23.0319 13.9297Z" stroke="#F5F5F5" stroke-width="2"/>
</svg>
