<svg width="24" height="29" viewBox="0 0 24 29" fill="none" xmlns="http://www.w3.org/2000/svg">
<path fill-rule="evenodd" clip-rule="evenodd" d="M7.62865 6.85716C7.62865 4.44579 9.58705 2.48823 12.0062 2.48823C14.4254 2.48823 16.3838 4.44579 16.3838 6.85716C16.3838 9.26854 14.4254 11.2261 12.0062 11.2261C9.58705 11.2261 7.62865 9.26854 7.62865 6.85716ZM12.0062 0.48823C8.48552 0.48823 5.62865 3.33818 5.62865 6.85716C5.62865 10.3761 8.48552 13.2261 12.0062 13.2261C15.527 13.2261 18.3838 10.3761 18.3838 6.85716C18.3838 3.33818 15.527 0.48823 12.0062 0.48823ZM5.86125 18.4765C7.54777 16.9651 9.73447 16.1289 12.0014 16.1289C14.2682 16.1289 16.4549 16.9651 18.1415 18.4765C19.8279 19.9879 20.8953 22.0679 21.1391 24.3166L21.1394 24.3198C21.1612 24.5148 21.1162 24.7116 21.0117 24.8782C20.9081 25.0432 20.7519 25.1691 20.5678 25.2355C19.4343 25.6195 17.0133 26.0887 12.0059 26.0887C6.98568 26.0887 4.56856 25.6443 3.44077 25.2617C3.25224 25.1959 3.09221 25.0679 2.98699 24.8992C2.8814 24.7299 2.8373 24.5298 2.86184 24.3321L2.8628 24.3244L2.86364 24.3166C3.10737 22.0679 4.17476 19.9879 5.86125 18.4765ZM12.0014 14.1289C9.24223 14.1289 6.58014 15.1466 4.52646 16.9871C2.47451 18.826 1.17451 21.3568 0.876062 24.094C0.79725 24.7442 0.943332 25.4018 1.29003 25.9576C1.6382 26.5159 2.16749 26.9375 2.78917 27.1525L2.79425 27.1543C4.23367 27.6435 6.91223 28.0887 12.0059 28.0887C17.1077 28.0887 19.7825 27.6148 21.2176 27.127L21.2176 27.1271L21.2289 27.1231C21.8403 26.9071 22.3608 26.4908 22.7056 25.9415C23.0498 25.3932 23.1985 24.7446 23.1274 24.1011C22.8305 21.3611 21.53 18.8276 19.4762 16.9871C17.4226 15.1466 14.7605 14.1289 12.0014 14.1289Z" fill="#6F6E7C"/>
</svg>
